<?xml version="1.0" encoding="iso-8859-1"?>
<!-- Generator: Adobe Illustrator 24.1.2, SVG Export Plug-In . SVG Version: 6.00 Build 0)  -->
<svg version="1.1" baseProfile="basic" id="&#x421;&#x43B;&#x43E;&#x439;_1"
	 xmlns="http://www.w3.org/2000/svg" xmlns:xlink="http://www.w3.org/1999/xlink" x="0px" y="0px" viewBox="0 0 24 24"
	 xml:space="preserve">
<path marker-start="none" marker-end="none" style="fill-rule:evenodd;clip-rule:evenodd;" d="M21,23.999l-6-3v-1.584l-1.933-1.932
	C13.023,17.649,13,17.822,13,17.999v3c0,0.759,0.428,1.451,1.105,1.789l0.421,0.211H7c-2.209,0-4-1.791-4-4v-4
	c0-1.492,0.817-2.795,2.031-3.481c-0.021-0.169-0.032-0.343-0.032-0.519V9.414L0.292,4.707l1.415-1.415l14.707,14.707H18L21,23.999z
	 M20.476,18.483l-0.688-1.377c-0.339-0.677-1.031-1.107-1.788-1.107h-0.765L5.005,3.771C5.124,1.67,6.867-0.001,9-0.001
	c2.208,0,4,1.792,4,4c0,0.948-0.329,1.817-0.88,2.503C12.669,7.186,13,8.054,13,8.999v2h1c0.592,0,1-0.437,1-0.999l-0.001-6.5
	c0-1.933,1.567-3.501,3.5-3.501c1.284,0,2.408,0.695,3.016,1.728l0.245,0.512l0.512,0.245C23.304,3.093,24,4.215,24,5.499
	c0,1.396-0.819,2.601-2,3.163v5.337C22,15.627,21.356,17.147,20.476,18.483z M11,3.999c0-1.103-0.897-2-2-2c-1.104,0-2,0.897-2,2
	c0,1.104,0.896,2,2,2C10.103,5.999,11,5.103,11,3.999z"/>
</svg>